<svg width="248" height="46" viewBox="0 0 248 46" fill="none" xmlns="http://www.w3.org/2000/svg">
<path d="M55.5243 24.0809L54.9365 26.2889H60.0434L59.4923 24.0809C58.831 21.6889 58.1697 18.8553 57.5451 16.3529H57.3981C56.8103 18.8921 56.1857 21.6889 55.5243 24.0809ZM46.8535 36.2249L54.3486 12.2313H60.8517L68.3468 36.2249H62.6153L61.1457 30.5209H53.8343L52.3646 36.2249H46.8535ZM75.4837 36.6665C71.7729 36.6665 70.5237 34.2377 70.5237 30.5577V10.4281H75.9246V30.7785C75.9246 31.9193 76.439 32.2873 76.8799 32.2873C77.1003 32.2873 77.2473 32.2873 77.5412 32.2137L78.2026 36.2249C77.6147 36.4825 76.6962 36.6665 75.4837 36.6665ZM81.0362 36.2249V17.9721H86.4371V36.2249H81.0362ZM83.7183 15.2857C81.918 15.2857 80.5953 14.1081 80.5953 12.4521C80.5953 10.7961 81.918 9.65527 83.7183 9.65527C85.5553 9.65527 86.8412 10.7961 86.8412 12.4521C86.8412 14.1081 85.5553 15.2857 83.7183 15.2857ZM97.6935 43.9897C93.4316 43.9897 90.0514 42.5913 90.0514 39.3529C90.0514 37.8441 90.97 36.6297 92.66 35.6729V35.5257C91.7048 34.9001 90.97 33.9433 90.97 32.4345C90.97 31.1097 91.8517 29.8217 93.0274 29.0121V28.8649C91.7415 27.9817 90.5658 26.2521 90.5658 24.1177C90.5658 19.7385 94.1664 17.5305 98.0977 17.5305C99.1264 17.5305 100.118 17.6777 100.927 17.9721H107.577V21.9097H104.674C105.005 22.4617 105.262 23.3449 105.262 24.3017C105.262 28.4969 102.102 30.4473 98.0977 30.4473C97.4363 30.4473 96.7015 30.3369 95.8932 30.0793C95.4156 30.4841 95.2319 30.8153 95.2319 31.4409C95.2319 32.3609 95.9667 32.8025 97.9874 32.8025H100.927C105.409 32.8025 107.871 34.1641 107.871 37.4393C107.871 41.2297 103.939 43.9897 97.6935 43.9897ZM98.0977 27.1721C99.5306 27.1721 100.596 26.1417 100.596 24.1177C100.596 22.2041 99.5306 21.1737 98.0977 21.1737C96.6648 21.1737 95.5993 22.1673 95.5993 24.1177C95.5993 26.1417 96.6648 27.1721 98.0977 27.1721ZM98.5385 40.6041C100.963 40.6041 102.727 39.6105 102.727 38.3593C102.727 37.2185 101.735 36.9241 99.9347 36.9241H98.0609C96.8117 36.9241 96.0769 36.8505 95.4891 36.7033C94.8277 37.2921 94.4971 37.8441 94.4971 38.5065C94.4971 39.8681 96.1137 40.6041 98.5385 40.6041ZM110.816 36.2249V17.9721H115.225L115.593 20.2905H115.74C117.283 18.8185 119.12 17.5305 121.581 17.5305C125.549 17.5305 127.239 20.3273 127.239 24.8905V36.2249H121.838V25.5897C121.838 22.9401 121.14 22.1305 119.597 22.1305C118.238 22.1305 117.393 22.7561 116.217 23.8969V36.2249H110.816Z" fill="#22649E"/>
<path d="M139.859 36.2249V12.1577H154.335V15.7641H144.121V21.9097H152.755V25.5161H144.121V32.6185H154.702V36.2249H139.859ZM165.221 36.6665C160.702 36.6665 157.8 33.1705 157.8 27.2089C157.8 21.3209 161.511 17.7145 165.442 17.7145C167.499 17.7145 168.785 18.4873 170.181 19.7017L170.035 16.7945V10.2441H174.26V36.2249H170.769L170.475 34.2745H170.328C169.006 35.5993 167.169 36.6665 165.221 36.6665ZM166.25 33.1705C167.646 33.1705 168.822 32.5449 170.035 31.1465V22.7193C168.785 21.6153 167.573 21.2105 166.36 21.2105C164.046 21.2105 162.172 23.3817 162.172 27.1721C162.172 31.0729 163.642 33.1705 166.25 33.1705ZM185.997 36.6665C181.808 36.6665 180.265 34.0169 180.265 30.1161V21.5049H177.693V18.3401L180.486 18.1561L181 13.2249H184.527V18.1561H189.12V21.5049H184.527V30.1161C184.527 32.2505 185.335 33.2809 187.062 33.2809C187.687 33.2809 188.422 33.0969 188.936 32.8761L189.671 36.0041C188.679 36.3353 187.43 36.6665 185.997 36.6665ZM200.057 36.6665C195.061 36.6665 191.166 33.1705 191.166 27.2089C191.166 21.3209 195.244 17.7145 199.47 17.7145C204.356 17.7145 206.928 21.2473 206.928 26.2889C206.928 27.0985 206.854 27.9081 206.744 28.3497H195.281C195.649 31.5513 197.706 33.3913 200.609 33.3913C202.152 33.3913 203.474 32.9129 204.797 32.0665L206.23 34.7161C204.503 35.8569 202.335 36.6665 200.057 36.6665ZM195.244 25.4793H203.254C203.254 22.6825 202.041 20.9897 199.58 20.9897C197.449 20.9897 195.612 22.5721 195.244 25.4793ZM218.496 36.6665C213.572 36.6665 209.788 33.2073 209.788 27.2089C209.788 21.1737 214.013 17.7145 218.826 17.7145C221.141 17.7145 222.794 18.5977 224.117 19.7385L222.059 22.4985C221.104 21.6521 220.186 21.1737 219.047 21.1737C216.144 21.1737 214.123 23.5657 214.123 27.2089C214.123 30.8153 216.107 33.2073 218.936 33.2073C220.333 33.2073 221.619 32.5081 222.647 31.6617L224.374 34.4585C222.684 35.9305 220.553 36.6665 218.496 36.6665ZM227.934 36.2249V10.2441H232.16V16.9417L232.013 20.4377C233.519 19.0025 235.319 17.7145 237.781 17.7145C241.639 17.7145 243.329 20.3273 243.329 24.8905V36.2249H239.104V25.4425C239.104 22.4617 238.259 21.3577 236.275 21.3577C234.695 21.3577 233.666 22.1305 232.16 23.6025V36.2249H227.934Z" fill="#60D687"/>
<path d="M16.7548 39.0304L8.26904 43.4007L17.0773 2.26352L17.6132 1.72461L26.9642 43.4007L17.7736 39.0149C17.4502 38.8606 17.0734 38.8663 16.7548 39.0304Z" fill="#263750"/>
<path d="M17.6167 1.72461L8.2692 43.4007L3.0524 43.9917C2.42838 44.0624 1.86344 43.6178 1.78434 42.9939L0.125891 29.9102C0.0444751 29.268 0.18189 28.617 0.515884 28.0626L15.5793 3.06234C15.8301 2.6461 16.2061 2.32017 16.6534 2.13134L17.6167 1.72461Z" fill="#22649E"/>
<path d="M17.6167 1.72461L26.9643 43.4007L32.5095 43.9987C33.1304 44.0657 33.6908 43.6234 33.771 43.0031L35.4622 29.9284C35.5467 29.275 35.4046 28.6124 35.0597 28.0514L19.6924 3.0569C19.4386 2.64413 19.0611 2.32224 18.6138 2.13717L17.6167 1.72461Z" fill="#60D687"/>
</svg>
